HIERARCHY
ROOT Hips
{
	OFFSET 0.000000 0.000000 0.000000
	CHANNELS 6 Xposition Yposition Zposition Zrotation Yrotation Xrotation 
	JOINT LeftUpLeg_virtual
	{
		OFFSET 0.000000 0.000000 0.000000
		CHANNELS 3 Zrotation Yrotation Xrotation
		JOINT LeftUpLeg
		{
			OFFSET 8.479694 -4.795517 -0.379053
			CHANNELS 3 Zrotation Yrotation Xrotation
			JOINT LeftLeg
			{
				OFFSET 0.485052 -32.551468 0.112863
				CHANNELS 3 Zrotation Yrotation Xrotation
				JOINT LeftFoot
				{
					OFFSET 0.438033 -32.635670 -3.012641
					CHANNELS 3 Zrotation Yrotation Xrotation
					JOINT LeftToeBase
					{
						OFFSET 0.970169 -13.225353 11.864223
						CHANNELS 3 Zrotation Yrotation Xrotation
						End Site
						{
							OFFSET 0.000000 0.000000 0.000000
						}
					}
				}
			}
		}
	}
	JOINT RightUpLeg_virtual
	{
		OFFSET 0.000000 0.000000 0.000000
		CHANNELS 3 Zrotation Yrotation Xrotation
		JOINT RightUpLeg
		{
			OFFSET -8.479694 -4.795517 -0.379053
			CHANNELS 3 Zrotation Yrotation Xrotation
			JOINT RightLeg
			{
				OFFSET -0.484100 -32.551483 0.112903
				CHANNELS 3 Zrotation Yrotation Xrotation
				JOINT RightFoot
				{
					OFFSET -0.438985 -32.635651 -3.012681
					CHANNELS 3 Zrotation Yrotation Xrotation
					JOINT RightToeBase
					{
						OFFSET -0.970169 -13.225354 11.864223
						CHANNELS 3 Zrotation Yrotation Xrotation
						End Site
						{
							OFFSET 0.000000 0.000000 0.000000
						}
					}
				}
			}
		}
	}
	JOINT Spine_virtual
	{
		OFFSET 0.000000 0.000000 0.000000
		CHANNELS 3 Zrotation Yrotation Xrotation
		JOINT Spine
		{
			OFFSET 0.000000 7.722015 1.166203
			CHANNELS 3 Zrotation Yrotation Xrotation
			JOINT Spine1
			{
				OFFSET 0.000000 12.024086 0.248766
				CHANNELS 3 Zrotation Yrotation Xrotation
				JOINT Spine2
				{
					OFFSET -0.000000 11.503036 -0.491240
					CHANNELS 3 Zrotation Yrotation Xrotation
					JOINT Neck_virtual
					{
						OFFSET 0.000000 0.000000 0.000000
						CHANNELS 3 Zrotation Yrotation Xrotation
						JOINT Neck
						{
							OFFSET 0.000000 18.430687 -3.123054
							CHANNELS 3 Zrotation Yrotation Xrotation
							JOINT Head
							{
								OFFSET -0.000000 9.051071 1.034021
								CHANNELS 3 Zrotation Yrotation Xrotation
								End Site
								{
									OFFSET 0.000000 0.000000 0.000000
								}
							}
						}
					}
					JOINT LeftShoulder_virtual
					{
						OFFSET 0.000000 0.000000 0.000000
						CHANNELS 3 Zrotation Yrotation Xrotation
						JOINT LeftShoulder
						{
							OFFSET 6.197824 13.665230 -4.064723
							CHANNELS 3 Zrotation Yrotation Xrotation
							JOINT LeftArm
							{
								OFFSET 7.778132 -0.187073 -1.709282
								CHANNELS 3 Zrotation Yrotation Xrotation
								JOINT LeftForeArm
								{
									OFFSET 21.954697 0.000000 -2.041093
									CHANNELS 3 Zrotation Yrotation Xrotation
									JOINT LeftHand
									{
										OFFSET 22.992908 0.000000 -0.870901
										CHANNELS 3 Zrotation Yrotation Xrotation
										End Site
										{
											OFFSET 0.000000 0.000000 0.000000
										}
									}
								}
							}
						}
					}
					JOINT RightShoulder_virtual
					{
						OFFSET 0.000000 0.000000 0.000000
						CHANNELS 3 Zrotation Yrotation Xrotation
						JOINT RightShoulder
						{
							OFFSET -6.197824 13.665230 -4.064723
							CHANNELS 3 Zrotation Yrotation Xrotation
							JOINT RightArm
							{
								OFFSET -7.778132 -0.187073 -1.709282
								CHANNELS 3 Zrotation Yrotation Xrotation
								JOINT RightForeArm
								{
									OFFSET -21.954697 0.000000 -2.041093
									CHANNELS 3 Zrotation Yrotation Xrotation
									JOINT RightHand
									{
										OFFSET -22.992908 0.000000 -0.870901
										CHANNELS 3 Zrotation Yrotation Xrotation
										End Site
										{
											OFFSET 0.000000 0.000000 0.000000
										}
									}
								}
							}
						}
					}
				}
			}
		}
	}
}
MOTION
Frames: 14
Frame Time: 0.033333
9.565870 81.173691 3.239184 -179.906814 5.601246 179.998530 -2.947490 -2.546314 11.029792 3.592822 0.051042 -30.531700 6.492421 5.290370 34.380696 -2.341920 -6.525039 -9.451947 0.000000 0.000000 0.000000 0.602393 -2.854343 11.230107 -1.618115 -1.527803 -25.171598 -1.015494 6.667027 29.789088 7.126375 5.620027 -14.570178 0.000000 0.000000 0.000000 2.303191 -0.249127 -0.731978 0.273244 1.200880 0.948578 0.620250 -1.985305 13.298854 -0.054518 0.060638 0.019928 0.601459 -1.028330 13.915347 0.577539 -3.583084 -5.561679 0.000000 0.000000 0.000000 1.822575 -0.340230 10.890196 -8.384543 -9.955670 6.481877 -55.631925 -15.627440 6.730844 -4.040672 -33.233009 10.987343 0.000000 0.000000 0.000000 -1.906592 1.448857 10.155806 24.610478 14.066048 5.957916 58.592307 15.088489 23.146722 -167.597187 72.957280 -170.983103 0.000000 0.000000 0.000000 
10.187757 81.078323 3.727206 -179.863797 4.646423 179.986386 -2.929027 -2.684226 11.112906 4.544236 0.026315 -31.353488 5.813421 4.981107 34.780348 -2.570243 -6.783900 -9.125940 0.000000 0.000000 0.000000 0.722424 -3.211756 11.319321 -1.093035 -1.638832 -25.422432 -1.038581 6.409953 29.768502 6.463219 5.479801 -15.063540 0.000000 0.000000 0.000000 2.478062 -0.431243 -0.290533 0.389198 1.318093 1.063052 0.790899 -1.868263 13.493955 -0.012483 -0.022230 -0.029512 0.690724 -1.075783 14.170162 0.865883 -3.764591 -5.786513 0.000000 0.000000 0.000000 1.896922 -0.471880 11.142262 -8.244209 -10.243405 6.604066 -56.024654 -15.381287 6.771924 -3.693027 -31.863160 10.886794 0.000000 0.000000 0.000000 -1.829495 1.448933 10.377714 24.523769 14.165823 5.944555 58.720803 15.269071 23.291377 -167.370357 73.004306 -170.704363 0.000000 0.000000 0.000000 
10.783352 80.997765 4.100199 -179.850260 3.589902 179.986440 -2.968820 -2.967104 11.199454 5.338577 0.447858 -31.956877 5.160158 4.731137 35.027826 -2.906981 -7.183239 -8.899105 0.000000 0.000000 0.000000 0.794535 -3.573898 11.405486 -0.596505 -1.798218 -25.547665 -1.053497 6.120194 29.736338 5.802895 5.327594 -15.544985 0.000000 0.000000 0.000000 2.535897 -0.751200 0.030797 0.467771 1.232630 1.077737 0.901765 -1.874563 13.618720 -0.055456 -0.012987 -0.000284 0.830977 -1.024755 14.227096 1.149877 -3.918309 -5.997054 0.000000 0.000000 0.000000 2.070989 -0.377501 11.183188 -8.191166 -10.350925 6.655347 -56.253397 -15.096709 6.681742 -3.477847 -30.505489 10.891754 0.000000 0.000000 0.000000 -1.673256 1.509911 10.525448 24.689894 14.517740 6.237136 58.588741 15.668725 23.477814 -166.649799 72.845463 -170.015580 0.000000 0.000000 0.000000 
11.326484 80.949287 4.331395 -179.781453 2.820494 -179.940459 -2.984750 -2.696551 11.181457 6.265489 0.188108 -32.415572 4.505262 4.629713 35.133407 -3.216334 -7.582911 -8.573139 0.000000 0.000000 0.000000 0.863259 -3.684486 11.486799 -0.111381 -2.046707 -25.603584 -1.076572 5.906602 29.534325 5.164669 5.148377 -15.889848 0.000000 0.000000 0.000000 2.559267 -0.746043 0.202267 0.607931 1.389161 0.971512 1.050534 -1.873506 13.705204 -0.024974 -0.049961 -0.006443 0.973428 -0.857120 14.305777 1.446771 -4.046651 -6.099919 0.000000 0.000000 0.000000 2.205847 -0.350848 11.267059 -8.203732 -10.480166 6.701039 -56.389246 -14.929704 6.543264 -3.169422 -29.475128 10.742981 0.000000 0.000000 0.000000 -1.560022 1.490623 10.631452 24.573779 14.761985 6.325251 58.492231 15.997536 23.373174 -166.446546 72.776957 -169.822545 0.000000 0.000000 0.000000 
11.820046 80.944992 4.455820 -179.768571 2.043850 -179.899820 -2.987787 -2.424251 11.121197 7.260210 -0.273086 -32.572380 3.834787 4.897854 34.906160 -3.407055 -7.822821 -8.225148 0.000000 0.000000 0.000000 0.881230 -3.828795 11.352205 0.334244 -2.385515 -25.231284 -1.058780 5.602591 29.127745 4.648778 5.057487 -16.124917 0.000000 0.000000 0.000000 2.488622 -0.787856 0.292303 0.746923 1.419360 0.798293 1.169463 -1.852693 13.752760 -0.045876 -0.040768 -0.018856 1.151736 -0.879627 14.318970 1.736432 -4.100508 -6.123875 0.000000 0.000000 0.000000 2.349418 -0.374258 11.321237 -8.226667 -10.505488 6.695561 -56.634549 -14.732680 6.504657 -2.929852 -28.787270 10.623552 0.000000 0.000000 0.000000 -1.366160 1.506307 10.614210 24.676432 14.904902 6.436899 58.181614 16.313205 22.845863 -166.397738 72.584543 -169.858404 0.000000 0.000000 0.000000 
12.270384 80.977570 4.518798 -179.795386 1.328196 179.957330 -3.073008 -2.221835 11.138596 8.026894 -0.376548 -32.410194 3.182549 4.828705 34.454288 -3.553615 -8.048538 -7.919276 0.000000 0.000000 0.000000 0.854309 -3.949485 11.386509 0.691937 -2.587863 -24.764584 -1.012466 5.262327 28.557631 4.235275 5.013243 -16.182038 0.000000 0.000000 0.000000 2.297521 -0.786988 0.424469 0.906663 1.372029 0.629153 1.319801 -1.877574 13.782640 -0.030297 -0.008660 -0.018075 1.248186 -0.902975 14.270747 2.030744 -4.116486 -6.054178 0.000000 0.000000 0.000000 2.390785 -0.406239 11.329427 -8.382307 -10.415399 6.608612 -56.884305 -14.560812 6.515393 -2.808965 -28.532051 10.712542 0.000000 0.000000 0.000000 -1.292380 1.465686 10.562747 24.715663 14.977645 6.516926 57.736634 16.607062 22.086253 -166.383545 72.404670 -169.969257 0.000000 0.000000 0.000000 
12.688438 81.028305 4.584134 -179.804129 0.513313 179.869835 -3.165114 -2.075716 11.142592 8.890889 -0.842898 -32.189063 2.526775 4.905076 33.702797 -3.594916 -8.218490 -7.674144 0.000000 0.000000 0.000000 0.815628 -4.223951 11.437752 1.039656 -2.812565 -24.279009 -0.971387 4.831277 27.853359 3.904530 4.996946 -16.099876 0.000000 0.000000 0.000000 2.177158 -0.872873 0.475588 1.083366 1.237706 0.359750 1.398250 -1.977969 13.788113 -0.069943 -0.068675 0.004647 1.376201 -0.986030 14.195942 2.275526 -4.057714 -5.887257 0.000000 0.000000 0.000000 2.527472 -0.353411 11.188634 -8.634011 -10.164041 6.660065 -57.047116 -14.509052 6.432510 -2.720781 -28.764064 10.750099 0.000000 0.000000 0.000000 -1.160130 1.538240 10.472722 24.616920 15.094447 6.551949 57.246629 16.640182 21.659379 -166.275491 72.149938 -169.992439 0.000000 0.000000 0.000000 
13.070642 81.065140 4.653820 -179.812598 -0.104281 179.845492 -3.253182 -1.860610 11.119015 9.695524 -1.340339 -31.970756 1.923265 5.073870 32.926047 -3.498992 -8.352427 -7.759296 0.000000 0.000000 0.000000 0.739541 -4.647765 11.444207 1.330815 -2.750437 -23.949824 -0.901664 4.547755 27.309482 3.609493 4.954990 -15.918190 0.000000 0.000000 0.000000 2.069070 -0.954065 0.488542 1.249722 1.001334 0.043696 1.457760 -1.848783 13.767171 -0.070356 -0.001037 -0.027139 1.445263 -1.000354 14.180847 2.506781 -3.998691 -5.697749 0.000000 0.000000 0.000000 2.575824 -0.336214 11.159170 -8.787051 -9.913989 6.588116 -57.163875 -14.570306 6.482822 -2.699283 -29.401444 10.833237 0.000000 0.000000 0.000000 -1.135019 1.591209 10.451591 24.579722 15.095083 6.786947 56.624621 16.528115 21.270360 -166.563862 71.862360 -170.417851 0.000000 0.000000 0.000000 
13.402415 81.070625 4.726530 -179.806506 -0.510290 179.842528 -3.319007 -1.740688 11.175769 10.345356 -1.671935 -31.752955 1.441272 5.106138 32.510232 -3.288982 -8.451388 -7.871650 0.000000 0.000000 0.000000 0.635796 -4.739228 11.471941 1.645549 -2.841749 -23.754187 -0.766689 4.368592 26.919708 3.317047 4.880562 -15.848083 0.000000 0.000000 0.000000 1.993002 -0.791043 0.532046 1.439011 0.987042 -0.235763 1.491828 -2.055068 13.752064 -0.059302 0.054327 -0.045313 1.514333 -0.963759 14.191665 2.753444 -4.012740 -5.501552 0.000000 0.000000 0.000000 2.571321 -0.369014 11.164997 -8.908570 -9.731141 6.556012 -57.129560 -14.795127 6.478041 -2.781868 -30.245464 11.031706 0.000000 0.000000 0.000000 -1.104602 1.558137 10.382699 24.485485 14.956338 6.814346 56.264339 16.289320 21.355500 -166.806538 71.487068 -170.789399 0.000000 0.000000 0.000000 
13.687562 81.042801 4.805254 -179.774814 -0.723173 179.790182 -3.358544 -1.736309 11.212814 10.847531 -1.903330 -31.716257 1.067930 5.004804 32.252915 -3.030971 -8.561203 -8.063372 0.000000 0.000000 0.000000 0.538738 -4.197701 11.513552 2.177550 -4.111036 -23.676492 -0.578438 4.491851 26.740669 3.160470 4.956271 -15.912717 0.000000 0.000000 0.000000 1.929946 -0.711587 0.630398 1.622665 0.972409 -0.432967 1.538226 -1.981043 13.748338 -0.039787 -0.064882 -0.033198 1.525126 -1.020613 14.219738 2.865305 -3.966584 -5.326553 0.000000 0.000000 0.000000 2.581429 -0.414918 11.159534 -8.973147 -9.500300 6.468648 -57.031055 -15.041176 6.656392 -2.782764 -31.167465 11.144565 0.000000 0.000000 0.000000 -1.103803 1.572719 10.305815 24.549302 14.862608 7.048568 55.904043 16.203956 21.598679 -166.764806 71.073466 -170.909255 0.000000 0.000000 0.000000 
13.943838 80.992676 4.891700 -179.773311 -0.892371 179.724421 -3.378629 -1.819907 11.250894 11.219755 -2.073080 -31.802758 0.820099 4.806006 32.153013 -2.764810 -8.652976 -8.265328 0.000000 0.000000 0.000000 0.369842 -4.203830 11.529378 2.547588 -4.632909 -23.681219 -0.375110 4.427542 26.760162 3.045030 5.041355 -15.975708 0.000000 0.000000 0.000000 1.842909 -0.691246 0.799912 1.766488 0.900734 -0.555377 1.566994 -1.984648 13.749838 -0.037936 -0.038139 -0.038091 1.539477 -0.970318 14.270920 2.926238 -3.810757 -5.241780 0.000000 0.000000 0.000000 2.586033 -0.411220 11.179463 -8.943737 -9.367773 6.364170 -56.921646 -15.444231 6.715572 -2.984326 -32.004204 11.431024 0.000000 0.000000 0.000000 -1.124349 1.459593 10.369373 24.557672 14.928657 7.032785 55.794822 16.075257 21.878599 -166.791853 70.849853 -171.132534 0.000000 0.000000 0.000000 
14.176852 80.939896 5.012045 -179.814784 -0.959439 179.686281 -3.387730 -1.875611 11.320189 11.464611 -2.132209 -31.912788 0.672043 4.579514 32.079691 -2.548385 -8.723723 -8.394217 0.000000 0.000000 0.000000 0.163573 -4.284211 11.556719 2.903949 -4.798926 -23.760876 -0.196913 4.256677 26.840309 2.973658 5.132460 -16.003924 0.000000 0.000000 0.000000 1.696203 -0.752907 0.968650 1.867403 0.810483 -0.661394 1.554835 -2.027701 13.735901 -0.069322 0.104427 -0.034836 1.573482 -0.915248 14.244471 2.891430 -3.794551 -5.264361 0.000000 0.000000 0.000000 2.609915 -0.358282 11.122753 -8.913548 -9.290016 6.251461 -56.870208 -15.821691 6.836443 -2.916317 -32.780229 11.348352 0.000000 0.000000 0.000000 -1.053118 1.475154 10.411533 24.595515 14.878314 7.118236 55.797407 16.148427 22.090970 -166.572850 70.739880 -171.165005 0.000000 0.000000 0.000000 
14.384036 80.906242 5.151433 -179.773120 -0.972134 179.671787 -3.391985 -1.880869 11.405238 11.607604 -2.118358 -32.026224 0.602286 4.328125 31.957625 -2.481556 -8.803404 -8.400915 0.000000 0.000000 0.000000 -0.000125 -4.343342 11.621818 3.265757 -4.897737 -23.922152 -0.021269 4.116252 26.901542 2.902579 5.143707 -15.946309 0.000000 0.000000 0.000000 1.651476 -0.655832 1.182936 1.972024 0.796187 -0.761986 1.580495 -1.985674 13.662123 -0.108754 0.003046 -0.049328 1.601631 -0.977963 14.161730 2.830199 -3.805440 -5.388443 0.000000 0.000000 0.000000 2.645932 -0.477951 11.096009 -8.855985 -9.231586 6.201552 -56.783218 -16.295713 6.787506 -2.884496 -33.254190 11.251844 0.000000 0.000000 0.000000 -1.052749 1.471562 10.287256 24.854386 14.629816 7.111439 55.818072 16.364327 22.100189 -166.483703 70.857612 -171.363887 0.000000 0.000000 0.000000 
14.579972 80.902145 5.274572 -179.742643 -0.980310 179.671473 -3.381670 -1.850694 11.472083 11.679076 -2.046081 -32.087614 0.644428 4.042975 31.728363 -2.558173 -8.846521 -8.255161 0.000000 0.000000 0.000000 -0.121355 -4.348295 11.705080 3.520545 -4.980243 -24.121122 0.101661 3.852293 26.936572 2.883972 5.140407 -15.813700 0.000000 0.000000 0.000000 1.680520 -0.516481 1.293735 2.016313 0.784454 -0.775505 1.548683 -1.977199 13.555730 -0.011285 0.017878 -0.049957 1.450828 -1.044114 14.101288 2.690857 -3.649894 -5.593640 0.000000 0.000000 0.000000 2.504384 -0.589049 11.034849 -8.875723 -9.204957 6.075680 -56.652919 -16.718790 6.507444 -2.926836 -33.588859 11.325337 0.000000 0.000000 0.000000 -1.192334 1.441780 10.165665 25.099584 14.273727 7.063584 56.046289 16.674563 22.199305 -165.660037 70.893614 -170.849928 0.000000 0.000000 0.000000 
